<svg width="20" height="20" viewBox="0 0 20 20" fill="none" xmlns="http://www.w3.org/2000/svg">
<path d="M5.45719 8.79686C7.33985 8.79686 8.86605 7.27067 8.86605 5.38801C8.86605 3.50535 7.33985 1.97916 5.45719 1.97916C3.57454 1.97916 2.04834 3.50535 2.04834 5.38801C2.04834 7.27067 3.57454 8.79686 5.45719 8.79686Z" stroke="white" stroke-width="1.2"/>
<path d="M14.8815 7.88022V8.79689M14.8815 7.88022C14.0696 7.88022 13.3544 7.47511 12.9349 6.85999M14.8815 7.88022C15.6934 7.88022 16.4086 7.47511 16.8282 6.85999M12.9349 6.85999L12.0745 7.42188M12.9349 6.85999C12.6868 6.49618 12.5421 6.05892 12.5421 5.58855C12.5421 5.11824 12.6867 4.68103 12.9348 4.31725M16.8282 6.85999L17.6885 7.42188M16.8282 6.85999C17.0763 6.49618 17.2209 6.05892 17.2209 5.58855C17.2209 5.11824 17.0763 4.68103 16.8282 4.31725M14.8815 3.29689C15.6935 3.29689 16.4088 3.70205 16.8282 4.31725M14.8815 3.29689C14.0696 3.29689 13.3543 3.70205 12.9348 4.31725M14.8815 3.29689V2.38022M16.8282 4.31725L17.6888 3.75522M12.9348 4.31725L12.0742 3.75522" stroke="white" stroke-width="1.2" stroke-linecap="round"/>
<path d="M14.6811 18.0208C16.5637 18.0208 18.0899 16.4946 18.0899 14.612C18.0899 12.7293 16.5637 11.2031 14.6811 11.2031C12.7984 11.2031 11.2722 12.7293 11.2722 14.612C11.2722 16.4946 12.7984 18.0208 14.6811 18.0208Z" stroke="white" stroke-width="1.2"/>
<path d="M5.45719 18.0208C7.33985 18.0208 8.86605 16.4946 8.86605 14.612C8.86605 12.7293 7.33985 11.2031 5.45719 11.2031C3.57454 11.2031 2.04834 12.7293 2.04834 14.612C2.04834 16.4946 3.57454 18.0208 5.45719 18.0208Z" stroke="white" stroke-width="1.2"/>
</svg>
