<svg width="20" height="20" viewBox="0 0 20 20" fill="none" xmlns="http://www.w3.org/2000/svg">
<path d="M6.1936 14.0094V10.8018" stroke="white" stroke-width="1.20281" stroke-linecap="round"/>
<path d="M10.2036 14.0093V5.99051" stroke="white" stroke-width="1.20281" stroke-linecap="round"/>
<path d="M14.2134 14.0093V9.19803" stroke="white" stroke-width="1.20281" stroke-linecap="round"/>
<path d="M2.58447 9.99993C2.58447 6.40886 2.58447 4.61332 3.70007 3.49771C4.81569 2.38211 6.61122 2.38211 10.2023 2.38211C13.7933 2.38211 15.5889 2.38211 16.7046 3.49771C17.8201 4.61332 17.8201 6.40886 17.8201 9.99993C17.8201 13.591 17.8201 15.3865 16.7046 16.5022C15.5889 17.6178 13.7933 17.6178 10.2023 17.6178C6.61122 17.6178 4.81569 17.6178 3.70007 16.5022C2.58447 15.3865 2.58447 13.591 2.58447 9.99993Z" stroke="white" stroke-width="1.20281" stroke-linejoin="round"/>
</svg>
