<svg width="20" height="20" viewBox="0 0 20 20" fill="none" xmlns="http://www.w3.org/2000/svg">
<path d="M2.08398 9.99992C2.08398 6.26797 2.08398 4.40199 3.24335 3.24262C4.40273 2.08325 6.2687 2.08325 10.0007 2.08325C13.7326 2.08325 15.5986 2.08325 16.758 3.24262C17.9173 4.40199 17.9173 6.26797 17.9173 9.99992C17.9173 13.7318 17.9173 15.5978 16.758 16.7573C15.5986 17.9166 13.7326 17.9166 10.0007 17.9166C6.2687 17.9166 4.40273 17.9166 3.24335 16.7573C2.08398 15.5978 2.08398 13.7318 2.08398 9.99992Z" stroke="white" stroke-width="1.5"/>
<path d="M10.9723 6.66663L12.6758 8.42863C13.3919 9.16938 13.75 9.53971 13.75 9.99996C13.75 10.4602 13.3919 10.8305 12.6758 11.5713L10.9723 13.3333M6.25 6.66663L7.95353 8.42863C8.66967 9.16938 9.02775 9.53971 9.02775 9.99996C9.02775 10.4602 8.66967 10.8305 7.95353 11.5713L6.25 13.3333" stroke="white" stroke-width="1.5" stroke-linecap="round" stroke-linejoin="round"/>
</svg>
