<svg width="30" height="30" viewBox="0 0 30 30" fill="none" xmlns="http://www.w3.org/2000/svg">
<path d="M12.5 8.7835C13.1038 5.21654 16.2081 2.5 19.9469 2.5C24.1184 2.5 27.5 5.88165 27.5 10.0531C27.5 13.7919 24.7835 16.8962 21.2165 17.5" stroke="white" stroke-width="1.875" stroke-linecap="round" stroke-linejoin="round"/>
<path d="M10 27.5C14.1421 27.5 17.5 24.1421 17.5 20C17.5 15.8579 14.1421 12.5 10 12.5C5.85786 12.5 2.5 15.8579 2.5 20C2.5 24.1421 5.85786 27.5 10 27.5Z" stroke="white" stroke-width="1.875" stroke-linecap="round" stroke-linejoin="round"/>
<path d="M2.5 11.25C2.5 7.10357 5.85357 3.75 10 3.75L8.92857 5.89286" stroke="white" stroke-width="1.875" stroke-linecap="round" stroke-linejoin="round"/>
<path d="M27.5 18.75C27.5 22.8964 24.1464 26.25 20 26.25L21.0714 24.1071" stroke="white" stroke-width="1.875" stroke-linecap="round" stroke-linejoin="round"/>
</svg>
