<svg width="28" height="22" viewBox="0 0 28 22" fill="none" xmlns="http://www.w3.org/2000/svg">
<path d="M18.3623 18.6662L20.0869 21.0269C20.2487 21.2831 20.5598 21.3975 20.8438 21.2961C21.9155 20.9133 24.5719 19.8758 26.7591 18.2962C26.9297 18.173 27.0282 17.9677 27.0269 17.7559C27.0269 5.99953 23.6957 2.6662 23.6957 2.6662C23.6957 2.6662 21.029 1.1357 18.1675 0.674223C17.8861 0.62881 17.6103 0.77965 17.4851 1.03808L16.8918 2.26189C16.8918 2.26189 15.4083 1.95149 13.6946 1.95149C11.9809 1.95149 10.4974 2.26189 10.4974 2.26189L9.90407 1.03808C9.77877 0.77965 9.50317 0.62881 9.22164 0.674223C6.36231 1.13536 3.69564 2.6662 3.69564 2.6662C3.69564 2.6662 0.362318 5.99953 0.362318 17.7559C0.360985 17.9677 0.459452 18.173 0.630038 18.2962C2.8172 19.8758 5.47365 20.9133 6.54533 21.2961C6.82932 21.3975 7.14041 21.2831 7.30234 21.0269L9.02897 18.6662" fill="white"/>
</svg>
