<svg width="33" height="32" viewBox="0 0 33 32" fill="none" xmlns="http://www.w3.org/2000/svg">
<path d="M21.3623 23.6662L23.0869 26.0269C23.2487 26.2831 23.5598 26.3975 23.8438 26.2961C24.9155 25.9133 27.5719 24.8758 29.7591 23.2962C29.9297 23.173 30.0282 22.9677 30.0269 22.7559C30.0269 10.9995 26.6957 7.6662 26.6957 7.6662C26.6957 7.6662 24.029 6.1357 21.1675 5.67422C20.8861 5.62881 20.6103 5.77965 20.4851 6.03808L19.8918 7.26189C19.8918 7.26189 18.4083 6.95149 16.6946 6.95149C14.9809 6.95149 13.4974 7.26189 13.4974 7.26189L12.9041 6.03808C12.7788 5.77965 12.5032 5.62881 12.2216 5.67422C9.36231 6.13536 6.69564 7.6662 6.69564 7.6662C6.69564 7.6662 3.36232 10.9995 3.36232 22.7559C3.36098 22.9677 3.45945 23.173 3.63004 23.2962C5.8172 24.8758 8.47365 25.9133 9.54533 26.2961C9.82932 26.3975 10.1404 26.2831 10.3023 26.0269L12.029 23.6662" fill="white"/>
<path d="M23.693 16.3334C23.693 17.8062 22.6484 19.0001 21.3597 19.0001C20.071 19.0001 19.0264 17.8062 19.0264 16.3334C19.0264 14.8606 20.071 13.6667 21.3597 13.6667C22.6484 13.6667 23.693 14.8606 23.693 16.3334Z" fill="#7B61FF"/>
<path d="M14.3591 16.3334C14.3591 17.8062 13.3144 19.0001 12.0257 19.0001C10.7371 19.0001 9.69238 17.8062 9.69238 16.3334C9.69238 14.8606 10.7371 13.6667 12.0257 13.6667C13.3144 13.6667 14.3591 14.8606 14.3591 16.3334Z" fill="#7B61FF"/>
</svg>
