<svg width="20" height="20" viewBox="0 0 20 20" fill="none" xmlns="http://www.w3.org/2000/svg">
<path d="M6.12207 4.34296H12.938C13.6023 4.34296 14.1408 4.88147 14.1408 5.54577V6.74859" stroke="white" stroke-width="1.20281" stroke-linecap="round" stroke-linejoin="round"/>
<path d="M12.1362 10.7578H7.32495" stroke="white" stroke-width="1.20281" stroke-linecap="round" stroke-linejoin="round"/>
<path d="M9.73058 13.9654H7.32495" stroke="white" stroke-width="1.20281" stroke-linecap="round" stroke-linejoin="round"/>
<path d="M14.9405 1.98111L5.1662 1.98113C4.7677 1.98113 4.36011 2.0396 4.03798 2.27606C3.01662 3.02579 2.2295 4.69787 3.81902 6.20748C4.26532 6.63135 4.88915 6.78501 5.50239 6.78501H14.7693C15.4056 6.78501 16.5467 6.87607 16.5467 8.81895V14.7961C16.5467 16.5758 15.1116 18.0186 13.3413 18.0186H6.10022C4.3332 18.0186 3.04806 16.7698 2.94654 14.8683L2.91969 4.52015" stroke="white" stroke-width="1.20281" stroke-linecap="round"/>
</svg>
