<svg width="22" height="20" viewBox="0 0 22 20" fill="none" xmlns="http://www.w3.org/2000/svg">
<path d="M19.7753 0.729248L11.9712 6.52547L13.4144 3.10578L19.7753 0.729248Z" fill="#E2761B" stroke="#E2761B" stroke-width="1.34998" stroke-linecap="round" stroke-linejoin="round"/>
<path d="M1.75903 0.729248L9.5004 6.58037L8.12782 3.10578L1.75903 0.729248Z" fill="#E4761B" stroke="#E4761B" stroke-width="1.34998" stroke-linecap="round" stroke-linejoin="round"/>
<path d="M16.9684 14.1649L14.8899 17.3493L19.3371 18.5729L20.6155 14.2355L16.9684 14.1649Z" fill="#E4761B" stroke="#E4761B" stroke-width="1.34998" stroke-linecap="round" stroke-linejoin="round"/>
<path d="M0.936035 14.2355L2.20665 18.5729L6.65382 17.3493L4.57534 14.1649L0.936035 14.2355Z" fill="#E4761B" stroke="#E4761B" stroke-width="1.34998" stroke-linecap="round" stroke-linejoin="round"/>
<path d="M6.40258 8.78444L5.16333 10.659L9.57912 10.8551L9.42226 6.10986L6.40258 8.78444Z" fill="#E4761B" stroke="#E4761B" stroke-width="1.34998" stroke-linecap="round" stroke-linejoin="round"/>
<path d="M15.1313 8.78429L12.0724 6.05481L11.9705 10.8549L16.3784 10.6588L15.1313 8.78429Z" fill="#E4761B" stroke="#E4761B" stroke-width="1.34998" stroke-linecap="round" stroke-linejoin="round"/>
<path d="M6.65259 17.3493L9.30363 16.0551L7.01338 14.2668L6.65259 17.3493Z" fill="#E4761B" stroke="#E4761B" stroke-width="1.34998" stroke-linecap="round" stroke-linejoin="round"/>
<path d="M12.2302 16.0551L14.8891 17.3493L14.5205 14.2668L12.2302 16.0551Z" fill="#E4761B" stroke="#E4761B" stroke-width="1.34998" stroke-linecap="round" stroke-linejoin="round"/>
<path d="M14.8881 17.3493L12.2292 16.0552L12.441 17.7886L12.4175 18.518L14.8881 17.3493Z" fill="#D7C1B3" stroke="#D7C1B3" stroke-width="1.34998" stroke-linecap="round" stroke-linejoin="round"/>
<path d="M6.65283 17.3493L9.12348 18.518L9.10779 17.7886L9.30388 16.0552L6.65283 17.3493Z" fill="#D7C1B3" stroke="#D7C1B3" stroke-width="1.34998" stroke-linecap="round" stroke-linejoin="round"/>
<path d="M9.16348 13.1217L6.95166 12.4707L8.51248 11.757L9.16348 13.1217Z" fill="#233447" stroke="#233447" stroke-width="1.34998" stroke-linecap="round" stroke-linejoin="round"/>
<path d="M12.3723 13.1217L13.0233 11.757L14.592 12.4707L12.3723 13.1217Z" fill="#233447" stroke="#233447" stroke-width="1.34998" stroke-linecap="round" stroke-linejoin="round"/>
<path d="M6.65539 17.3493L7.03187 14.1649L4.5769 14.2355L6.65539 17.3493Z" fill="#CD6116" stroke="#CD6116" stroke-width="1.34998" stroke-linecap="round" stroke-linejoin="round"/>
<path d="M14.5144 14.1649L14.8909 17.3493L16.9694 14.2355L14.5144 14.1649Z" fill="#CD6116" stroke="#CD6116" stroke-width="1.34998" stroke-linecap="round" stroke-linejoin="round"/>
<path d="M16.3811 10.6589L11.9731 10.855L12.381 13.1217L13.032 11.757L14.6007 12.4707L16.3811 10.6589Z" fill="#CD6116" stroke="#CD6116" stroke-width="1.34998" stroke-linecap="round" stroke-linejoin="round"/>
<path d="M6.95429 12.4707L8.52296 11.757L9.16611 13.1217L9.58181 10.855L5.16602 10.6589L6.95429 12.4707Z" fill="#CD6116" stroke="#CD6116" stroke-width="1.34998" stroke-linecap="round" stroke-linejoin="round"/>
<path d="M5.16455 10.6589L7.01558 14.2669L6.95283 12.4707L5.16455 10.6589Z" fill="#E4751F" stroke="#E4751F" stroke-width="1.34998" stroke-linecap="round" stroke-linejoin="round"/>
<path d="M14.6004 12.4707L14.522 14.2669L16.3808 10.6589L14.6004 12.4707Z" fill="#E4751F" stroke="#E4751F" stroke-width="1.34998" stroke-linecap="round" stroke-linejoin="round"/>
<path d="M9.58 10.855L9.16431 13.1217L9.68197 15.7963L9.79962 12.2746L9.58 10.855Z" fill="#E4751F" stroke="#E4751F" stroke-width="1.34998" stroke-linecap="round" stroke-linejoin="round"/>
<path d="M11.9725 10.855L11.7607 12.2668L11.8549 15.7963L12.3804 13.1217L11.9725 10.855Z" fill="#E4751F" stroke="#E4751F" stroke-width="1.34998" stroke-linecap="round" stroke-linejoin="round"/>
<path d="M12.3783 13.1217L11.8528 15.7963L12.2293 16.0551L14.5195 14.2668L14.5979 12.4707L12.3783 13.1217Z" fill="#F6851B" stroke="#F6851B" stroke-width="1.34998" stroke-linecap="round" stroke-linejoin="round"/>
<path d="M6.95166 12.4707L7.01441 14.2668L9.30466 16.0551L9.68114 15.7963L9.16348 13.1217L6.95166 12.4707Z" fill="#F6851B" stroke="#F6851B" stroke-width="1.34998" stroke-linecap="round" stroke-linejoin="round"/>
<path d="M12.4182 18.5179L12.4417 17.7885L12.2456 17.6159H9.28868L9.10828 17.7885L9.12397 18.5179L6.65332 17.3492L7.51609 18.0551L9.26515 19.2709H12.2691L14.026 18.0551L14.8888 17.3492L12.4182 18.5179Z" fill="#C0AD9E" stroke="#C0AD9E" stroke-width="1.34998" stroke-linecap="round" stroke-linejoin="round"/>
<path d="M12.23 16.0551L11.8536 15.7963H9.68096L9.30448 16.0551L9.1084 17.7885L9.28879 17.6159H12.2457L12.4418 17.7885L12.23 16.0551Z" fill="#161616" stroke="#161616" stroke-width="1.34998" stroke-linecap="round" stroke-linejoin="round"/>
<path d="M20.1042 6.90195L20.7709 3.70187L19.7748 0.729248L12.2295 6.32939L15.1315 8.78435L19.2336 9.98438L20.1434 8.92553L19.7512 8.64317L20.3787 8.07061L19.8924 7.69413L20.5199 7.21568L20.1042 6.90195Z" fill="#763D16" stroke="#763D16" stroke-width="1.34998" stroke-linecap="round" stroke-linejoin="round"/>
<path d="M0.770752 3.70187L1.43744 6.90195L1.0139 7.21568L1.64136 7.69413L1.16292 8.07061L1.79039 8.64317L1.39822 8.92553L2.3002 9.98438L6.40226 8.78435L9.3043 6.32939L1.75901 0.729248L0.770752 3.70187Z" fill="#763D16" stroke="#763D16" stroke-width="1.34998" stroke-linecap="round" stroke-linejoin="round"/>
<path d="M19.2339 9.98433L15.1318 8.7843L16.3789 10.6589L14.52 14.2668L16.9671 14.2354H20.6143L19.2339 9.98433Z" fill="#F6851B" stroke="#F6851B" stroke-width="1.34998" stroke-linecap="round" stroke-linejoin="round"/>
<path d="M6.40357 8.7843L2.30151 9.98433L0.936768 14.2354H4.57607L7.01535 14.2668L5.16432 10.6589L6.40357 8.7843Z" fill="#F6851B" stroke="#F6851B" stroke-width="1.34998" stroke-linecap="round" stroke-linejoin="round"/>
<path d="M11.9729 10.8549L12.2317 6.32932L13.4239 3.10571H8.12964L9.30614 6.32932L9.58066 10.8549L9.67478 12.2824L9.68262 15.7962H11.8552L11.8709 12.2824L11.9729 10.8549Z" fill="#F6851B" stroke="#F6851B" stroke-width="1.34998" stroke-linecap="round" stroke-linejoin="round"/>
</svg>
