<svg width="25" height="26" viewBox="0 0 25 26" fill="none" xmlns="http://www.w3.org/2000/svg">
<path d="M9.44743 22.0178H15.2679C17.4064 22.0178 17.4064 22.0178 18.7682 20.0003L21.976 14.4523C22.4602 13.615 22.4602 12.2532 21.976 11.426L18.7682 5.87794C17.4064 3.86046 17.4064 3.86046 15.278 3.86046H9.44743C7.31898 3.86046 7.31898 3.86046 5.95718 5.87794L2.74938 11.426C2.26518 12.2532 2.26518 13.615 2.74938 14.4523L5.95718 20.0003C7.31898 22.0178 7.31898 22.0178 9.44743 22.0178Z" stroke="white" stroke-width="1.72927" stroke-linecap="round" stroke-linejoin="round"/>
<path d="M15.3889 12.9391C15.3889 11.2678 14.034 9.91288 12.3627 9.91288C10.6913 9.91288 9.33643 11.2678 9.33643 12.9391C9.33643 14.6104 10.6913 15.9653 12.3627 15.9653C14.034 15.9653 15.3889 14.6104 15.3889 12.9391Z" stroke="white" stroke-width="1.72927" stroke-linecap="round" stroke-linejoin="round"/>
</svg>
