<svg width="20" height="20" viewBox="0 0 20 20" fill="none" xmlns="http://www.w3.org/2000/svg">
<path d="M15.7791 11.6211L15.2205 8.58071C14.9792 7.26751 14.8586 6.6109 14.3808 6.22213C13.9031 5.83337 13.2168 5.83337 11.8443 5.83337H8.15571C6.78317 5.83337 6.0969 5.83337 5.61915 6.22213C5.1414 6.6109 5.02077 7.26751 4.77948 8.58071L4.22088 11.6211C3.72007 14.3469 3.46966 15.7098 4.24074 16.605C5.01182 17.5 6.43629 17.5 9.28525 17.5H10.7147C13.5637 17.5 14.9882 17.5 15.7592 16.605C16.5303 15.7098 16.2799 14.3469 15.7791 11.6211Z" stroke="white" stroke-linecap="round"/>
<path d="M9.99935 8.75V14.1667M7.91602 12.5L9.99935 14.5833L12.0827 12.5" stroke="white" stroke-linecap="round" stroke-linejoin="round"/>
<path d="M17.4993 9.16667C17.63 9.10075 17.7436 9.01767 17.8445 8.91292C18.3327 8.40625 18.3327 7.59077 18.3327 5.9598C18.3327 4.32883 18.3327 3.51335 17.8445 3.00668C17.3563 2.5 16.5707 2.5 14.9993 2.5H4.99935C3.428 2.5 2.64232 2.5 2.15417 3.00668C1.66602 3.51335 1.66602 4.32883 1.66602 5.9598C1.66602 7.59077 1.66602 8.40625 2.15417 8.91292C2.25508 9.01767 2.3687 9.10075 2.49935 9.16667" stroke="white" stroke-linecap="round"/>
</svg>
