<svg width="139" height="57" viewBox="0 0 139 57" fill="none" xmlns="http://www.w3.org/2000/svg">
<mask id="path-1-outside-1_1_4428" maskUnits="userSpaceOnUse" x="0.757812" y="0.699219" width="56" height="56" fill="black">
<rect fill="white" x="0.757812" y="0.699219" width="56" height="56"/>
<path fill-rule="evenodd" clip-rule="evenodd" d="M17.8112 11.3675C17.0093 9.7342 15.3482 8.69922 13.5287 8.69922H10.0524C9.33742 8.69922 8.75781 9.27882 8.75781 9.99381C8.75781 10.8237 9.61635 11.438 10.3068 11.8984C10.3504 11.9274 10.3931 11.9584 10.435 11.9913L20.7238 20.0791C21.5922 20.7618 21.7428 22.0191 21.0602 22.8875C20.3776 23.7559 19.1202 23.9065 18.2518 23.2239L12.5214 18.7193C10.9953 17.5196 8.75781 18.6068 8.75781 20.548C8.75781 21.6388 9.51583 22.5831 10.5808 22.819L17.7846 24.4146C18.8631 24.6535 19.5437 25.7213 19.3048 26.7998C19.0659 27.8782 17.998 28.5588 16.9196 28.3199L11.1924 27.0514C9.94266 26.7746 8.75781 27.7257 8.75781 29.0057C8.75781 30.2958 9.96026 31.249 11.2163 30.9546L17.0145 29.5955C18.0899 29.3434 19.1661 30.0109 19.4181 31.0863C19.6702 32.1617 19.0027 33.2379 17.9273 33.49L10.5956 35.2085C9.51901 35.4608 8.75781 36.4211 8.75781 37.5268C8.75781 39.5276 11.0757 40.6363 12.6334 39.3807L18.5658 34.5986C19.4257 33.9053 20.6848 34.0405 21.378 34.9005C22.0712 35.7604 21.9361 37.0195 21.0761 37.7127L10.8872 45.9261C10.6981 46.0785 10.4896 46.1909 10.2722 46.2644C9.59052 46.4945 8.75781 47.005 8.75781 47.7245C8.75781 48.2628 9.19422 48.6992 9.73257 48.6992H13.9615C15.9691 48.6992 17.7977 47.5443 18.6603 45.7314L22.1323 38.4348C22.6069 37.4374 23.8002 37.0136 24.7976 37.4882C25.795 37.9628 26.2188 39.1561 25.7442 40.1535L23.0885 45.7348C22.4338 47.1107 23.4371 48.6992 24.9608 48.6992C26.1093 48.6992 27.039 47.7657 27.0343 46.6172L27.0087 40.3467C27.0042 39.2421 27.8959 38.343 29.0005 38.3385C30.1051 38.334 31.0041 39.2258 31.0087 40.3303L31.0343 46.6112C31.039 47.7658 31.9763 48.6992 33.1309 48.6992C34.6791 48.6992 35.6932 47.0789 35.0166 45.6864L32.2324 39.9563C31.7497 38.9628 32.1637 37.7661 33.1572 37.2833C34.1507 36.8006 35.3474 37.2147 35.8302 38.2082L39.6104 45.9881C40.4162 47.6465 42.0982 48.6992 43.942 48.6992H47.5065C48.1976 48.6992 48.7578 48.139 48.7578 47.4479C48.7578 46.633 47.9058 46.0335 47.2139 45.603C47.1496 45.563 47.0868 45.5189 47.026 45.4707L36.7703 37.3409C35.9047 36.6547 35.7592 35.3967 36.4454 34.5312C37.1316 33.6656 38.3895 33.5201 39.2551 34.2063L44.9805 38.7448C46.5077 39.9555 48.7578 38.8678 48.7578 36.919C48.7578 35.8299 48.0034 34.8861 46.941 34.6462L39.7266 33.0173C38.6491 32.774 37.9729 31.7034 38.2162 30.6259C38.4594 29.5485 39.5301 28.8722 40.6075 29.1155L46.3186 30.405C47.5687 30.6873 48.7578 29.7367 48.7578 28.4551C48.7578 27.1702 47.5629 26.219 46.3106 26.5071L40.5162 27.8403C39.4397 28.088 38.3663 27.4161 38.1187 26.3397C37.871 25.2633 38.5428 24.1898 39.6193 23.9422L46.918 22.2628C47.9948 22.0151 48.7578 21.0566 48.7578 19.9516C48.7578 17.9635 46.4584 16.8578 44.9054 18.0992L38.9845 22.8323C38.1217 23.522 36.8632 23.3817 36.1735 22.5189C35.4838 21.6562 35.6241 20.3976 36.4869 19.7079L46.7093 11.5363C46.8759 11.403 47.0574 11.3008 47.2466 11.2287C47.9304 10.9684 48.7578 10.4467 48.7578 9.71504C48.7578 9.15402 48.303 8.69922 47.742 8.69922H43.6134C41.6362 8.69922 39.834 9.83238 38.9771 11.6143L35.4339 18.9828C34.9553 19.9782 33.7602 20.3972 32.7648 19.9185C31.7693 19.4398 31.3504 18.2448 31.8291 17.2493L34.5106 11.6728C35.1728 10.2955 34.1692 8.69922 32.6409 8.69922C31.4952 8.69922 30.5664 9.62802 30.5664 10.7738V17.0519C30.5664 18.1564 29.671 19.0519 28.5664 19.0519C27.4618 19.0519 26.5664 18.1564 26.5664 17.0519V10.8525C26.5664 9.66326 25.6024 8.69922 24.4132 8.69922C22.8193 8.69922 21.7779 10.3707 22.4803 11.8014L25.2514 17.4456C25.7382 18.4371 25.329 19.6355 24.3375 20.1223C23.346 20.6091 22.1476 20.1999 21.6608 19.2084L17.8112 11.3675Z"/>
</mask>
<path fill-rule="evenodd" clip-rule="evenodd" d="M17.8112 11.3675C17.0093 9.7342 15.3482 8.69922 13.5287 8.69922H10.0524C9.33742 8.69922 8.75781 9.27882 8.75781 9.99381C8.75781 10.8237 9.61635 11.438 10.3068 11.8984C10.3504 11.9274 10.3931 11.9584 10.435 11.9913L20.7238 20.0791C21.5922 20.7618 21.7428 22.0191 21.0602 22.8875C20.3776 23.7559 19.1202 23.9065 18.2518 23.2239L12.5214 18.7193C10.9953 17.5196 8.75781 18.6068 8.75781 20.548C8.75781 21.6388 9.51583 22.5831 10.5808 22.819L17.7846 24.4146C18.8631 24.6535 19.5437 25.7213 19.3048 26.7998C19.0659 27.8782 17.998 28.5588 16.9196 28.3199L11.1924 27.0514C9.94266 26.7746 8.75781 27.7257 8.75781 29.0057C8.75781 30.2958 9.96026 31.249 11.2163 30.9546L17.0145 29.5955C18.0899 29.3434 19.1661 30.0109 19.4181 31.0863C19.6702 32.1617 19.0027 33.2379 17.9273 33.49L10.5956 35.2085C9.51901 35.4608 8.75781 36.4211 8.75781 37.5268C8.75781 39.5276 11.0757 40.6363 12.6334 39.3807L18.5658 34.5986C19.4257 33.9053 20.6848 34.0405 21.378 34.9005C22.0712 35.7604 21.9361 37.0195 21.0761 37.7127L10.8872 45.9261C10.6981 46.0785 10.4896 46.1909 10.2722 46.2644C9.59052 46.4945 8.75781 47.005 8.75781 47.7245C8.75781 48.2628 9.19422 48.6992 9.73257 48.6992H13.9615C15.9691 48.6992 17.7977 47.5443 18.6603 45.7314L22.1323 38.4348C22.6069 37.4374 23.8002 37.0136 24.7976 37.4882C25.795 37.9628 26.2188 39.1561 25.7442 40.1535L23.0885 45.7348C22.4338 47.1107 23.4371 48.6992 24.9608 48.6992C26.1093 48.6992 27.039 47.7657 27.0343 46.6172L27.0087 40.3467C27.0042 39.2421 27.8959 38.343 29.0005 38.3385C30.1051 38.334 31.0041 39.2258 31.0087 40.3303L31.0343 46.6112C31.039 47.7658 31.9763 48.6992 33.1309 48.6992C34.6791 48.6992 35.6932 47.0789 35.0166 45.6864L32.2324 39.9563C31.7497 38.9628 32.1637 37.7661 33.1572 37.2833C34.1507 36.8006 35.3474 37.2147 35.8302 38.2082L39.6104 45.9881C40.4162 47.6465 42.0982 48.6992 43.942 48.6992H47.5065C48.1976 48.6992 48.7578 48.139 48.7578 47.4479C48.7578 46.633 47.9058 46.0335 47.2139 45.603C47.1496 45.563 47.0868 45.5189 47.026 45.4707L36.7703 37.3409C35.9047 36.6547 35.7592 35.3967 36.4454 34.5312C37.1316 33.6656 38.3895 33.5201 39.2551 34.2063L44.9805 38.7448C46.5077 39.9555 48.7578 38.8678 48.7578 36.919C48.7578 35.8299 48.0034 34.8861 46.941 34.6462L39.7266 33.0173C38.6491 32.774 37.9729 31.7034 38.2162 30.6259C38.4594 29.5485 39.5301 28.8722 40.6075 29.1155L46.3186 30.405C47.5687 30.6873 48.7578 29.7367 48.7578 28.4551C48.7578 27.1702 47.5629 26.219 46.3106 26.5071L40.5162 27.8403C39.4397 28.088 38.3663 27.4161 38.1187 26.3397C37.871 25.2633 38.5428 24.1898 39.6193 23.9422L46.918 22.2628C47.9948 22.0151 48.7578 21.0566 48.7578 19.9516C48.7578 17.9635 46.4584 16.8578 44.9054 18.0992L38.9845 22.8323C38.1217 23.522 36.8632 23.3817 36.1735 22.5189C35.4838 21.6562 35.6241 20.3976 36.4869 19.7079L46.7093 11.5363C46.8759 11.403 47.0574 11.3008 47.2466 11.2287C47.9304 10.9684 48.7578 10.4467 48.7578 9.71504C48.7578 9.15402 48.303 8.69922 47.742 8.69922H43.6134C41.6362 8.69922 39.834 9.83238 38.9771 11.6143L35.4339 18.9828C34.9553 19.9782 33.7602 20.3972 32.7648 19.9185C31.7693 19.4398 31.3504 18.2448 31.8291 17.2493L34.5106 11.6728C35.1728 10.2955 34.1692 8.69922 32.6409 8.69922C31.4952 8.69922 30.5664 9.62802 30.5664 10.7738V17.0519C30.5664 18.1564 29.671 19.0519 28.5664 19.0519C27.4618 19.0519 26.5664 18.1564 26.5664 17.0519V10.8525C26.5664 9.66326 25.6024 8.69922 24.4132 8.69922C22.8193 8.69922 21.7779 10.3707 22.4803 11.8014L25.2514 17.4456C25.7382 18.4371 25.329 19.6355 24.3375 20.1223C23.346 20.6091 22.1476 20.1999 21.6608 19.2084L17.8112 11.3675Z" fill="white"/>
<path d="M10.435 11.9913L5.49099 18.2807L10.435 11.9913ZM20.7238 20.0791L25.6678 13.7897L25.6678 13.7897L20.7238 20.0791ZM18.2518 23.2239L23.1958 16.9344L23.1958 16.9344L18.2518 23.2239ZM17.7846 24.4146L19.5147 16.6039L17.7846 24.4146ZM16.9196 28.3199L18.6497 20.5092L18.6496 20.5092L16.9196 28.3199ZM17.0145 29.5955L15.1888 21.8066L15.1888 21.8066L17.0145 29.5955ZM19.4181 31.0863L11.6292 32.912L11.6292 32.912L19.4181 31.0863ZM17.9273 33.49L16.1017 25.7011L16.1017 25.7011L17.9273 33.49ZM18.5658 34.5986L13.545 28.3702L13.545 28.3702L18.5658 34.5986ZM21.0761 37.7127L16.0554 31.4844L16.0554 31.4844L21.0761 37.7127ZM10.8872 45.9261L15.9079 52.1545L15.9079 52.1545L10.8872 45.9261ZM22.1323 38.4348L14.9084 34.9974L14.9084 34.9974L22.1323 38.4348ZM25.7442 40.1535L32.9681 43.5909L32.9681 43.5909L25.7442 40.1535ZM27.0087 40.3467L35.0086 40.314V40.314L27.0087 40.3467ZM29.0005 38.3385L29.0332 46.3384H29.0332L29.0005 38.3385ZM31.0087 40.3303L23.0087 40.363V40.363L31.0087 40.3303ZM32.2324 39.9563L25.0369 43.4526L25.0369 43.4526L32.2324 39.9563ZM33.1572 37.2833L36.6535 44.4789L36.6535 44.4789L33.1572 37.2833ZM35.8302 38.2082L28.6346 41.7044L28.6346 41.7044L35.8302 38.2082ZM47.026 45.4707L42.0564 51.7399L42.0564 51.7399L47.026 45.4707ZM36.7703 37.3409L41.7399 31.0717L41.7399 31.0717L36.7703 37.3409ZM36.4454 34.5312L30.1762 29.5615L30.1762 29.5615L36.4454 34.5312ZM39.2551 34.2063L44.2247 27.9371L44.2247 27.9371L39.2551 34.2063ZM39.7266 33.0173L41.4885 25.2137L39.7266 33.0173ZM38.2162 30.6259L30.4126 28.864V28.864L38.2162 30.6259ZM40.6075 29.1155L42.3695 21.3119H42.3695L40.6075 29.1155ZM40.5162 27.8403L38.7224 20.044L38.7224 20.044L40.5162 27.8403ZM38.1187 26.3397L30.3224 28.1335L30.3224 28.1335L38.1187 26.3397ZM39.6193 23.9422L37.8255 16.1459L37.8254 16.1459L39.6193 23.9422ZM38.9845 22.8323L43.9797 29.0812L43.9797 29.0812L38.9845 22.8323ZM36.4869 19.7079L41.4821 25.9568L41.4821 25.9568L36.4869 19.7079ZM46.7093 11.5363L51.7045 17.7851L51.7045 17.7851L46.7093 11.5363ZM35.4339 18.9828L42.6437 22.4496V22.4496L35.4339 18.9828ZM31.8291 17.2493L39.0388 20.7162V20.7162L31.8291 17.2493ZM25.2514 17.4456L18.0702 20.9712L18.0702 20.9712L25.2514 17.4456ZM24.3375 20.1223L27.8631 27.3035L27.8631 27.3035L24.3375 20.1223ZM21.6608 19.2084L14.4796 22.7341L14.4796 22.7341L21.6608 19.2084ZM46.3186 30.405L48.0806 22.6014L46.3186 30.405ZM39.6104 45.9881L32.4149 49.4844L39.6104 45.9881ZM31.0343 46.6112L39.0343 46.5785L31.0343 46.6112ZM46.3106 26.5071L48.1045 34.3034L46.3106 26.5071ZM38.9771 11.6143L46.1869 15.0811L38.9771 11.6143ZM10.5956 35.2085L12.4213 42.9974L10.5956 35.2085ZM10.5808 22.819L12.3109 15.0083L10.5808 22.819ZM47.2139 45.603L51.4399 38.8103L47.2139 45.603ZM12.6334 39.3807L7.61268 33.1523L12.6334 39.3807ZM46.941 34.6462L45.1791 42.4498L46.941 34.6462ZM17.8112 11.3675L10.63 14.8932L17.8112 11.3675ZM11.2163 30.9546L9.39064 23.1657L11.2163 30.9546ZM44.9805 38.7448L40.0108 45.014L44.9805 38.7448ZM10.2722 46.2644L7.71289 38.6848L10.2722 46.2644ZM35.0166 45.6864L27.8211 49.1827L35.0166 45.6864ZM11.1924 27.0514L9.46234 34.8621L11.1924 27.0514ZM10.0524 16.6992H13.5287V0.699219H10.0524V16.6992ZM15.379 5.70186C15.1732 5.54012 14.9617 5.3869 14.7451 5.24244L5.86851 18.5543C5.73898 18.468 5.61304 18.3767 5.49099 18.2807L15.379 5.70186ZM25.6678 13.7897L15.379 5.70186L5.49099 18.2807L15.7799 26.3686L25.6678 13.7897ZM27.3496 27.8315C30.7627 23.4895 30.0098 17.2028 25.6678 13.7897L15.7799 26.3686C13.1747 24.3207 12.7229 20.5487 14.7708 17.9435L27.3496 27.8315ZM13.3079 29.5133C17.6498 32.9264 23.9365 32.1734 27.3496 27.8315L14.7708 17.9435C16.8186 15.3383 20.5907 14.8865 23.1958 16.9344L13.3079 29.5133ZM7.57739 25.0087L13.3079 29.5133L23.1958 16.9344L17.4654 12.4298L7.57739 25.0087ZM19.5147 16.6039L12.3109 15.0083L8.8508 30.6297L16.0546 32.2253L19.5147 16.6039ZM27.1155 28.5298C28.3098 23.1377 24.9068 17.7982 19.5147 16.6039L16.0546 32.2253C12.8193 31.5087 10.7775 28.305 11.4941 25.0697L27.1155 28.5298ZM15.1895 36.1306C20.5817 37.325 25.9211 33.922 27.1155 28.5298L11.4941 25.0697C12.2107 21.8344 15.4144 19.7926 18.6497 20.5092L15.1895 36.1306ZM9.46234 34.8621L15.1896 36.1306L18.6496 20.5092L12.9224 19.2407L9.46234 34.8621ZM15.1888 21.8066L9.39064 23.1657L13.042 38.7435L18.8402 37.3844L15.1888 21.8066ZM27.207 29.2607C25.9467 23.8835 20.5659 20.5463 15.1888 21.8066L18.8402 37.3844C15.6139 38.1406 12.3854 36.1383 11.6292 32.912L27.207 29.2607ZM19.753 41.2789C25.1301 40.0185 28.4674 34.6378 27.207 29.2607L11.6292 32.912C10.873 29.6857 12.8754 26.4573 16.1017 25.7011L19.753 41.2789ZM12.4213 42.9974L19.753 41.2789L16.1017 25.7011L8.76992 27.4196L12.4213 42.9974ZM13.545 28.3702L7.61268 33.1523L17.6541 45.609L23.5865 40.8269L13.545 28.3702ZM27.6064 29.8798C24.1403 25.58 17.8448 24.9041 13.545 28.3702L23.5865 40.8269C21.0066 42.9066 17.2293 42.5011 15.1497 39.9212L27.6064 29.8798ZM26.0968 43.9411C30.3966 40.475 31.0725 34.1795 27.6064 29.8798L15.1497 39.9212C13.07 37.3413 13.4755 33.564 16.0554 31.4844L26.0968 43.9411ZM15.9079 52.1545L26.0968 43.9411L16.0554 31.4844L5.86646 39.6977L15.9079 52.1545ZM12.8315 53.8439C13.9294 53.4732 14.9736 52.9076 15.9079 52.1545L5.86647 39.6977C6.42254 39.2495 7.04986 38.9086 7.71289 38.6848L12.8315 53.8439ZM13.9615 40.6992H9.73257V56.6992H13.9615V40.6992ZM14.9084 34.9974L11.4364 42.294L25.8842 49.1688L29.3562 41.8722L14.9084 34.9974ZM28.235 30.2643C23.2479 27.8913 17.2814 30.0104 14.9084 34.9974L29.3562 41.8722C27.9324 44.8644 24.3525 46.1359 21.3602 44.7121L28.235 30.2643ZM32.9681 43.5909C35.3411 38.6038 33.222 32.6373 28.235 30.2643L21.3602 44.7121C18.368 43.2883 17.0966 39.7084 18.5204 36.7161L32.9681 43.5909ZM30.3124 49.1721L32.9681 43.5909L18.5204 36.7161L15.8646 42.2974L30.3124 49.1721ZM19.0088 40.3794L19.0344 46.6499L35.0343 46.5845L35.0086 40.314L19.0088 40.3794ZM28.9678 30.3386C23.445 30.3611 18.9862 34.8566 19.0088 40.3794L35.0086 40.314C35.0222 43.6277 32.3469 46.3249 29.0332 46.3384L28.9678 30.3386ZM39.0086 40.2976C38.986 34.7748 34.4906 30.316 28.9678 30.3386L29.0332 46.3384C25.7195 46.352 23.0223 43.6767 23.0087 40.363L39.0086 40.2976ZM39.0343 46.5785L39.0086 40.2976L23.0087 40.363L23.0344 46.6439L39.0343 46.5785ZM25.0369 43.4526L27.8211 49.1827L42.2122 42.1901L39.428 36.46L25.0369 43.4526ZM29.6609 30.0878C24.6934 32.5015 22.6232 38.4851 25.0369 43.4526L39.428 36.46C40.8762 39.4405 39.634 43.0307 36.6535 44.4789L29.6609 30.0878ZM43.0257 34.7119C40.6121 29.7444 34.6284 27.6741 29.6609 30.0878L36.6535 44.4789C33.673 45.9271 30.0828 44.6849 28.6346 41.7044L43.0257 34.7119ZM46.806 42.4918L43.0257 34.7119L28.6346 41.7044L32.4149 49.4844L46.806 42.4918ZM47.5065 40.6992H43.942V56.6992H47.5065V40.6992ZM42.0564 51.7399C42.3554 51.9769 42.6665 52.1957 42.9879 52.3957L51.4399 38.8103C51.6327 38.9302 51.8182 39.0608 51.9956 39.2015L42.0564 51.7399ZM31.8006 43.61L42.0564 51.7399L51.9957 39.2015L41.7399 31.0717L31.8006 43.61ZM30.1762 29.5615C26.7454 33.8895 27.4727 40.1792 31.8006 43.6101L41.7399 31.0717C44.3367 33.1302 44.7731 36.904 42.7146 39.5008L30.1762 29.5615ZM44.2247 27.9371C39.8968 24.5063 33.607 25.2335 30.1762 29.5615L42.7146 39.5008C40.6561 42.0976 36.8822 42.5339 34.2855 40.4755L44.2247 27.9371ZM49.9501 32.4756L44.2247 27.9371L34.2855 40.4755L40.0108 45.014L49.9501 32.4756ZM37.9646 40.8208L45.1791 42.4498L48.703 26.8427L41.4885 25.2137L37.9646 40.8208ZM30.4126 28.864C29.1962 34.2512 32.5774 39.6045 37.9646 40.8208L41.4885 25.2137C44.7208 25.9435 46.7495 29.1555 46.0197 32.3879L30.4126 28.864ZM42.3695 21.3119C36.9823 20.0956 31.629 23.4767 30.4126 28.864L46.0197 32.3879C45.2899 35.6202 42.0779 37.6489 38.8456 36.9191L42.3695 21.3119ZM48.0806 22.6014L42.3695 21.3119L38.8456 36.9191L44.5567 38.2086L48.0806 22.6014ZM42.31 35.6366L48.1045 34.3034L44.5168 18.7108L38.7224 20.044L42.31 35.6366ZM30.3224 28.1335C31.5607 33.5157 36.9278 36.875 42.31 35.6366L38.7224 20.044C41.9517 19.301 45.1719 21.3165 45.915 24.5459L30.3224 28.1335ZM37.8254 16.1459C32.4432 17.3843 29.084 22.7513 30.3224 28.1335L45.915 24.5459C46.658 27.7752 44.6424 30.9954 41.4131 31.7385L37.8254 16.1459ZM45.1242 14.4665L37.8255 16.1459L41.4131 31.7385L48.7118 30.0591L45.1242 14.4665ZM43.9797 29.0812L49.9007 24.348L39.9102 11.8504L33.9893 16.5835L43.9797 29.0812ZM29.9246 27.5142C33.3731 31.8281 39.6658 32.5296 43.9797 29.0812L33.9893 16.5835C36.5776 14.5144 40.3532 14.9354 42.4223 17.5237L29.9246 27.5142ZM31.4916 13.4591C27.1777 16.9076 26.4762 23.2002 29.9246 27.5142L42.4223 17.5237C44.4914 20.1121 44.0704 23.8877 41.4821 25.9568L31.4916 13.4591ZM41.7141 5.28746L31.4916 13.4591L41.4821 25.9568L51.7045 17.7851L41.7141 5.28746ZM44.3999 3.75236C43.4445 4.11616 42.5366 4.62992 41.7141 5.28746L51.7045 17.7851C51.2153 18.1762 50.6703 18.4854 50.0934 18.7051L44.3999 3.75236ZM43.6134 16.6992H47.742V0.699219H43.6134V16.6992ZM42.6437 22.4496L46.1869 15.0811L31.7673 8.14741L28.2242 15.5159L42.6437 22.4496ZM29.2979 27.1283C34.2752 29.5216 40.2503 27.4269 42.6437 22.4496L28.2242 15.5159C29.6602 12.5295 33.2453 11.2727 36.2316 12.7087L29.2979 27.1283ZM24.6193 13.7825C22.2259 18.7598 24.3206 24.7349 29.2979 27.1283L36.2316 12.7087C39.218 14.1447 40.4748 17.7298 39.0388 20.7162L24.6193 13.7825ZM27.3008 8.20592L24.6193 13.7825L39.0388 20.7162L41.7203 15.1396L27.3008 8.20592ZM38.5664 17.0519V10.7738H22.5664V17.0519H38.5664ZM28.5664 27.0519C34.0893 27.0519 38.5664 22.5747 38.5664 17.0519H22.5664C22.5664 13.7382 25.2527 11.0519 28.5664 11.0519V27.0519ZM18.5664 17.0519C18.5664 22.5747 23.0436 27.0519 28.5664 27.0519V11.0519C31.8801 11.0519 34.5664 13.7382 34.5664 17.0519H18.5664ZM18.5664 10.8525V17.0519H34.5664V10.8525H18.5664ZM15.2991 15.3271L18.0702 20.9712L32.4326 13.9199L29.6615 8.27574L15.2991 15.3271ZM18.0702 20.9712C16.6098 17.9967 17.8373 14.4015 20.8118 12.9411L27.8631 27.3035C32.8207 24.8695 34.8665 18.8775 32.4326 13.9199L18.0702 20.9712ZM20.8118 12.9411C23.7864 11.4807 27.3816 12.7082 28.842 15.6827L14.4796 22.7341C16.9135 27.6916 22.9056 29.7374 27.8631 27.3035L20.8118 12.9411ZM28.842 15.6827L24.9924 7.84185L10.63 14.8932L14.4796 22.7341L28.842 15.6827ZM24.4132 0.699219C16.8976 0.699219 11.9869 8.58072 15.2991 15.3271L29.6615 8.27574C31.5688 12.1606 28.741 16.6992 24.4132 16.6992V0.699219ZM34.5664 10.8525C34.5664 5.24497 30.0206 0.699219 24.4132 0.699219V16.6992C21.1841 16.6992 18.5664 14.0815 18.5664 10.8525H34.5664ZM32.6409 0.699219C27.0769 0.699219 22.5664 5.20975 22.5664 10.7738H38.5664C38.5664 14.0463 35.9135 16.6992 32.6409 16.6992V0.699219ZM41.7203 15.1396C44.9365 8.45128 40.0624 0.699219 32.6409 0.699219V16.6992C28.2759 16.6992 25.4092 12.1398 27.3008 8.20592L41.7203 15.1396ZM56.7578 9.71504C56.7578 4.73574 52.7213 0.699219 47.742 0.699219V16.6992C43.8847 16.6992 40.7578 13.5723 40.7578 9.71504H56.7578ZM50.0934 18.7051C50.9747 18.3695 52.2766 17.7573 53.5107 16.6832C54.6978 15.65 56.7578 13.3246 56.7578 9.71504H40.7578C40.7578 6.83717 42.4041 5.13841 43.0066 4.61406C43.6561 4.0488 44.2024 3.82755 44.3999 3.75236L50.0934 18.7051ZM56.7578 19.9516C56.7578 11.2568 46.7018 6.42133 39.9102 11.8504L49.9007 24.348C46.215 27.2943 40.7578 24.6701 40.7578 19.9516H56.7578ZM48.7118 30.0591C53.4209 28.9756 56.7578 24.7837 56.7578 19.9516H40.7578C40.7578 17.3294 42.5687 15.0545 45.1242 14.4665L48.7118 30.0591ZM44.5567 38.2086C50.81 39.6205 56.7578 34.8659 56.7578 28.4551H40.7578C40.7578 24.6076 44.3275 21.754 48.0806 22.6014L44.5567 38.2086ZM32.4149 49.4844C34.5593 53.8977 39.0353 56.6992 43.942 56.6992V40.6992C45.1611 40.6992 46.2732 41.3953 46.806 42.4918L32.4149 49.4844ZM23.0344 46.6439C23.0571 52.2039 27.5708 56.6992 33.1309 56.6992V40.6992C36.3818 40.6992 39.021 43.3276 39.0343 46.5785L23.0344 46.6439ZM56.7578 28.4551C56.7578 22.0276 50.7807 17.2696 44.5168 18.7108L48.1045 34.3034C44.3451 35.1684 40.7578 32.3127 40.7578 28.4551H56.7578ZM15.8646 42.2974C12.6838 48.982 17.558 56.6992 24.9608 56.6992V40.6992C29.3161 40.6992 32.1837 45.2394 30.3124 49.1721L15.8646 42.2974ZM47.5065 56.6992C52.6158 56.6992 56.7578 52.5572 56.7578 47.4479H40.7578C40.7578 43.7207 43.7793 40.6992 47.5065 40.6992V56.6992ZM43.6134 0.699219C38.5615 0.699219 33.9566 3.59453 31.7673 8.14741L46.1869 15.0811C45.7113 16.0702 44.7109 16.6992 43.6134 16.6992V0.699219ZM8.76992 27.4196C4.07642 28.5197 0.757812 32.7061 0.757812 37.5268H16.7578C16.7578 40.136 14.9616 42.4019 12.4213 42.9974L8.76992 27.4196ZM0.757812 20.548C0.757812 25.3904 4.12289 29.5825 8.8508 30.6297L12.3109 15.0083C14.9088 15.5837 16.7578 17.8871 16.7578 20.548H0.757812ZM56.7578 47.4479C56.7578 44.0738 54.9717 41.8151 53.9585 40.7814C52.9382 39.7404 51.8413 39.06 51.4399 38.8103L42.9879 52.3957C43.2785 52.5765 42.9535 52.4111 42.5321 51.9812C42.1179 51.5586 40.7578 50.007 40.7578 47.4479H56.7578ZM0.757812 37.5268C0.757812 46.2495 10.8632 51.0832 17.6541 45.609L7.61268 33.1523C11.2883 30.1894 16.7578 32.8057 16.7578 37.5268H0.757812ZM24.9608 56.6992C30.5403 56.6992 35.0571 52.164 35.0343 46.5845L19.0344 46.6499C19.021 43.3674 21.6783 40.6992 24.9608 40.6992V56.6992ZM17.4654 12.4298C10.6905 7.10424 0.757812 11.9305 0.757812 20.548H16.7578C16.7578 25.2831 11.3 27.935 7.57739 25.0087L17.4654 12.4298ZM10.0524 0.699219C4.91914 0.699219 0.757812 4.86054 0.757812 9.99381H16.7578C16.7578 13.6971 13.7557 16.6992 10.0524 16.6992V0.699219ZM56.7578 36.919C56.7578 32.0905 53.4129 27.9061 48.703 26.8427L45.1791 42.4498C42.5938 41.8661 40.7578 39.5693 40.7578 36.919H56.7578ZM13.5287 16.6992C12.2971 16.6992 11.1728 15.9987 10.63 14.8932L24.9924 7.84185C22.8459 3.4697 18.3993 0.699219 13.5287 0.699219V16.6992ZM0.757812 47.7245C0.757812 52.6811 4.77595 56.6992 9.73257 56.6992V40.6992C13.6125 40.6992 16.7578 43.8445 16.7578 47.7245H0.757812ZM0.757812 29.0057C0.757812 35.4518 6.76601 40.2145 13.042 38.7435L9.39064 23.1657C13.1545 22.2834 16.7578 25.1398 16.7578 29.0057H0.757812ZM13.9615 56.6992C19.0556 56.6992 23.6954 53.7687 25.8842 49.1688L11.4364 42.294C11.9 41.3199 12.8826 40.6992 13.9615 40.6992V56.6992ZM0.757812 9.99381C0.757812 13.3365 2.5082 15.5849 3.49014 16.6122C4.47073 17.6382 5.54338 18.3375 5.86851 18.5543L14.7451 5.24244C14.3798 4.99884 14.6779 5.16085 15.0566 5.55707C15.4367 5.95472 16.7578 7.48101 16.7578 9.99381H0.757812ZM40.0108 45.014C46.7818 50.3814 56.7578 45.5593 56.7578 36.919H40.7578C40.7578 32.1764 46.2336 29.5295 49.9501 32.4756L40.0108 45.014ZM7.71289 38.6848C6.7354 39.0148 5.38688 39.6164 4.11531 40.684C2.90343 41.7015 0.757812 44.042 0.757812 47.7245H16.7578C16.7578 50.6874 15.0285 52.413 14.4034 52.9378C13.7186 53.5127 13.1273 53.744 12.8315 53.8439L7.71289 38.6848ZM33.1309 56.6992C40.5865 56.6992 45.4706 48.896 42.2122 42.1901L27.8211 49.1827C25.9159 45.2617 28.7716 40.6992 33.1309 40.6992V56.6992ZM12.9224 19.2407C6.67805 17.8576 0.757812 22.61 0.757812 29.0057H16.7578C16.7578 32.8414 13.2073 35.6916 9.46234 34.8621L12.9224 19.2407Z" fill="#212833" mask="url(#path-1-outside-1_1_4428)"/>
<mask id="path-3-outside-2_1_4428" maskUnits="userSpaceOnUse" x="46.7578" y="6.19922" width="99" height="44" fill="black">
<rect fill="white" x="46.7578" y="6.19922" width="99" height="44"/>
<path d="M59.8338 37.2752L54.7938 15.9992H60.3738L65.0178 36.4832H65.5938L70.2738 15.9992H75.8538L70.7778 37.2752C70.0218 40.5152 68.0778 41.7752 65.2698 41.7752C62.5338 41.7752 60.6258 40.5152 59.8338 37.2752ZM93.2365 26.5832V41.1992H87.6565V33.1712H86.5765L85.9645 36.6992C85.7125 38.7512 84.1285 41.3432 81.5005 41.3432H80.2045C77.0005 41.3432 75.1645 38.7872 75.1645 35.2592C75.1645 30.6152 78.2965 29.0312 81.8965 29.0312H87.6565V26.4392H77.1805V21.2912H87.9445C91.4725 21.2912 93.2365 23.0552 93.2365 26.5832ZM79.5925 36.7712H83.1205L83.7685 33.2432H79.5925V36.7712ZM95.7058 21.2912H101.286V36.5552H106.434V21.2912H112.014V31.8752C112.014 39.0392 109.386 41.7752 103.878 41.7752C98.4058 41.7752 95.7058 39.0392 95.7058 31.8752V21.2912ZM114.484 14.1992H120.028V35.9072H124.384V41.1992H119.92C116.356 41.1992 114.484 39.3272 114.484 35.4752V14.1992ZM137.254 41.1992H135.202C129.55 41.1992 127.03 38.2112 127.03 31.4432V26.4752H125.014V21.2912H127.03L130.558 15.9992H132.61V21.2912H137.11V26.4752H132.61V35.9072H137.254V41.1992Z"/>
</mask>
<path d="M59.8338 37.2752L54.7938 15.9992H60.3738L65.0178 36.4832H65.5938L70.2738 15.9992H75.8538L70.7778 37.2752C70.0218 40.5152 68.0778 41.7752 65.2698 41.7752C62.5338 41.7752 60.6258 40.5152 59.8338 37.2752ZM93.2365 26.5832V41.1992H87.6565V33.1712H86.5765L85.9645 36.6992C85.7125 38.7512 84.1285 41.3432 81.5005 41.3432H80.2045C77.0005 41.3432 75.1645 38.7872 75.1645 35.2592C75.1645 30.6152 78.2965 29.0312 81.8965 29.0312H87.6565V26.4392H77.1805V21.2912H87.9445C91.4725 21.2912 93.2365 23.0552 93.2365 26.5832ZM79.5925 36.7712H83.1205L83.7685 33.2432H79.5925V36.7712ZM95.7058 21.2912H101.286V36.5552H106.434V21.2912H112.014V31.8752C112.014 39.0392 109.386 41.7752 103.878 41.7752C98.4058 41.7752 95.7058 39.0392 95.7058 31.8752V21.2912ZM114.484 14.1992H120.028V35.9072H124.384V41.1992H119.92C116.356 41.1992 114.484 39.3272 114.484 35.4752V14.1992ZM137.254 41.1992H135.202C129.55 41.1992 127.03 38.2112 127.03 31.4432V26.4752H125.014V21.2912H127.03L130.558 15.9992H132.61V21.2912H137.11V26.4752H132.61V35.9072H137.254V41.1992Z" fill="white"/>
<path d="M59.8338 37.2752L52.0492 39.1193C52.0536 39.1378 52.0581 39.1563 52.0626 39.1748L59.8338 37.2752ZM54.7938 15.9992V7.99922C52.3477 7.99922 50.036 9.11831 48.5188 11.037C47.0015 12.9557 46.4454 15.463 47.0092 17.8433L54.7938 15.9992ZM60.3738 15.9992L68.1758 14.2304C67.3496 10.5861 64.1106 7.99922 60.3738 7.99922V15.9992ZM65.0178 36.4832L57.2158 38.252C58.042 41.8963 61.281 44.4832 65.0178 44.4832V36.4832ZM65.5938 36.4832V44.4832C69.3256 44.4832 72.5617 41.9031 73.3929 38.2651L65.5938 36.4832ZM70.2738 15.9992V7.99922C66.542 7.99922 63.306 10.5793 62.4748 14.2174L70.2738 15.9992ZM75.8538 15.9992L83.6354 17.8557C84.2036 15.4742 83.65 12.9637 82.1328 11.042C80.6157 9.12036 78.3022 7.99922 75.8538 7.99922V15.9992ZM70.7778 37.2752L62.9962 35.4187C62.9931 35.4316 62.9901 35.4445 62.9871 35.4574L70.7778 37.2752ZM67.6184 35.4312L62.5784 14.1552L47.0092 17.8433L52.0492 39.1193L67.6184 35.4312ZM54.7938 23.9992H60.3738V7.99922H54.7938V23.9992ZM52.5718 17.768L57.2158 38.252L72.8198 34.7144L68.1758 14.2304L52.5718 17.768ZM65.0178 44.4832H65.5938V28.4832H65.0178V44.4832ZM73.3929 38.2651L78.0729 17.7811L62.4748 14.2174L57.7948 34.7014L73.3929 38.2651ZM70.2738 23.9992H75.8538V7.99922H70.2738V23.9992ZM68.0722 14.1427L62.9962 35.4187L78.5594 39.1317L83.6354 17.8557L68.0722 14.1427ZM62.9871 35.4574C62.9018 35.8228 62.9918 35.1132 63.9009 34.4106C64.7831 33.7287 65.5071 33.7752 65.2698 33.7752V49.7752C67.8405 49.7752 70.9405 49.1918 73.6858 47.0698C76.4578 44.9272 77.8978 41.9676 78.5685 39.0931L62.9871 35.4574ZM65.2698 33.7752C65.1185 33.7752 65.8763 33.7523 66.7599 34.4454C67.64 35.1356 67.7094 35.8025 67.605 35.3756L52.0626 39.1748C52.7503 41.9879 54.1696 44.9048 56.8857 47.035C59.6053 49.1681 62.6851 49.7752 65.2698 49.7752V33.7752ZM93.2365 41.1992V49.1992C97.6547 49.1992 101.236 45.6175 101.236 41.1992H93.2365ZM87.6565 41.1992H79.6565C79.6565 45.6175 83.2382 49.1992 87.6565 49.1992V41.1992ZM87.6565 33.1712H95.6565C95.6565 28.7529 92.0747 25.1712 87.6565 25.1712V33.1712ZM86.5765 33.1712V25.1712C82.6857 25.1712 79.3592 27.9704 78.6942 31.8039L86.5765 33.1712ZM85.9645 36.6992L78.0822 35.3319C78.0596 35.4621 78.0402 35.5929 78.0241 35.7241L85.9645 36.6992ZM87.6565 29.0312V37.0312C92.0747 37.0312 95.6565 33.4495 95.6565 29.0312H87.6565ZM87.6565 26.4392H95.6565C95.6565 22.0209 92.0747 18.4392 87.6565 18.4392V26.4392ZM77.1805 26.4392H69.1805C69.1805 30.8575 72.7622 34.4392 77.1805 34.4392V26.4392ZM77.1805 21.2912V13.2912C72.7622 13.2912 69.1805 16.8729 69.1805 21.2912H77.1805ZM79.5925 36.7712H71.5925C71.5925 41.1895 75.1742 44.7712 79.5925 44.7712V36.7712ZM83.1205 36.7712V44.7712C86.9813 44.7712 90.2914 42.0138 90.9888 38.2164L83.1205 36.7712ZM83.7685 33.2432L91.6368 34.6884C92.0658 32.3528 91.435 29.9473 89.9151 28.1228C88.3951 26.2982 86.1432 25.2432 83.7685 25.2432V33.2432ZM79.5925 33.2432V25.2432C75.1742 25.2432 71.5925 28.8249 71.5925 33.2432H79.5925ZM85.2365 26.5832V41.1992H101.236V26.5832H85.2365ZM93.2365 33.1992H87.6565V49.1992H93.2365V33.1992ZM95.6565 41.1992V33.1712H79.6565V41.1992H95.6565ZM87.6565 25.1712H86.5765V41.1712H87.6565V25.1712ZM78.6942 31.8039L78.0822 35.3319L93.8468 38.0666L94.4588 34.5386L78.6942 31.8039ZM78.0241 35.7241C78.0739 35.3187 78.191 35.0122 78.4852 34.6602C78.871 34.1986 79.9119 33.3432 81.5005 33.3432V49.3432C85.7171 49.3432 88.8639 47.1918 90.7617 44.9212C92.5679 42.7602 93.603 40.1317 93.9048 37.6743L78.0241 35.7241ZM81.5005 33.3432H80.2045V49.3432H81.5005V33.3432ZM80.2045 33.3432C80.4856 33.3432 80.9525 33.4044 81.488 33.6579C82.026 33.9125 82.4503 34.2752 82.7426 34.6426C83.2927 35.3337 83.1645 35.7269 83.1645 35.2592H67.1645C67.1645 38.3195 67.9543 41.7547 70.2233 44.6059C72.6533 47.6592 76.2509 49.3432 80.2045 49.3432V33.3432ZM83.1645 35.2592C83.1645 34.9947 83.208 35.1472 83.0421 35.5272C82.8614 35.9413 82.5474 36.3582 82.1473 36.6752C81.7797 36.9663 81.4949 37.0517 81.4569 37.0622C81.4282 37.0701 81.5623 37.0312 81.8965 37.0312V21.0312C79.0992 21.0312 75.3835 21.6219 72.2137 24.1323C68.7178 26.9009 67.1645 30.9728 67.1645 35.2592H83.1645ZM81.8965 37.0312H87.6565V21.0312H81.8965V37.0312ZM95.6565 29.0312V26.4392H79.6565V29.0312H95.6565ZM87.6565 18.4392H77.1805V34.4392H87.6565V18.4392ZM85.1805 26.4392V21.2912H69.1805V26.4392H85.1805ZM77.1805 29.2912H87.9445V13.2912H77.1805V29.2912ZM87.9445 29.2912C88.4753 29.2912 87.4041 29.4185 86.2566 28.2711C85.1092 27.1236 85.2365 26.0524 85.2365 26.5832H101.236C101.236 23.5861 100.482 19.8688 97.5703 16.9574C94.6589 14.0459 90.9416 13.2912 87.9445 13.2912V29.2912ZM79.5925 44.7712H83.1205V28.7712H79.5925V44.7712ZM90.9888 38.2164L91.6368 34.6884L75.9001 31.798L75.2521 35.326L90.9888 38.2164ZM83.7685 25.2432H79.5925V41.2432H83.7685V25.2432ZM71.5925 33.2432V36.7712H87.5925V33.2432H71.5925ZM95.7058 21.2912V13.2912C91.2876 13.2912 87.7058 16.8729 87.7058 21.2912H95.7058ZM101.286 21.2912H109.286C109.286 16.8729 105.704 13.2912 101.286 13.2912V21.2912ZM101.286 36.5552H93.2858C93.2858 40.9735 96.8676 44.5552 101.286 44.5552V36.5552ZM106.434 36.5552V44.5552C110.852 44.5552 114.434 40.9735 114.434 36.5552H106.434ZM106.434 21.2912V13.2912C102.016 13.2912 98.4338 16.8729 98.4338 21.2912H106.434ZM112.014 21.2912H120.014C120.014 16.8729 116.432 13.2912 112.014 13.2912V21.2912ZM95.7058 29.2912H101.286V13.2912H95.7058V29.2912ZM93.2858 21.2912V36.5552H109.286V21.2912H93.2858ZM101.286 44.5552H106.434V28.5552H101.286V44.5552ZM114.434 36.5552V21.2912H98.4338V36.5552H114.434ZM106.434 29.2912H112.014V13.2912H106.434V29.2912ZM104.014 21.2912V31.8752H120.014V21.2912H104.014ZM104.014 31.8752C104.014 33.2158 103.887 34.005 103.78 34.4095C103.682 34.7845 103.652 34.6408 103.921 34.324C104.053 34.1696 104.214 34.0249 104.389 33.9065C104.56 33.7905 104.696 33.733 104.757 33.7108C104.852 33.6765 104.631 33.7752 103.878 33.7752V49.7752C107.869 49.7752 112.641 48.7619 116.101 44.6995C119.292 40.954 120.014 36.1326 120.014 31.8752H104.014ZM103.878 33.7752C103.14 33.7752 102.917 33.6781 103.004 33.7094C103.166 33.7675 103.508 33.9499 103.804 34.294C104.068 34.6003 104.038 34.7388 103.941 34.3741C103.835 33.9792 103.706 33.2011 103.706 31.8752H87.7058C87.7058 36.1761 88.4623 40.9948 91.6756 44.7294C95.1398 48.7558 99.8912 49.7752 103.878 49.7752V33.7752ZM103.706 31.8752V21.2912H87.7058V31.8752H103.706ZM114.484 14.1992V6.19922C110.066 6.19922 106.484 9.78094 106.484 14.1992H114.484ZM120.028 14.1992H128.028C128.028 9.78094 124.447 6.19922 120.028 6.19922V14.1992ZM120.028 35.9072H112.028C112.028 40.3255 115.61 43.9072 120.028 43.9072V35.9072ZM124.384 35.9072H132.384C132.384 31.4889 128.803 27.9072 124.384 27.9072V35.9072ZM124.384 41.1992V49.1992C128.803 49.1992 132.384 45.6175 132.384 41.1992H124.384ZM114.484 22.1992H120.028V6.19922H114.484V22.1992ZM112.028 14.1992V35.9072H128.028V14.1992H112.028ZM120.028 43.9072H124.384V27.9072H120.028V43.9072ZM116.384 35.9072V41.1992H132.384V35.9072H116.384ZM124.384 33.1992H119.92V49.1992H124.384V33.1992ZM119.92 33.1992C119.474 33.1992 120.539 33.1004 121.631 34.2352C122.668 35.3136 122.484 36.2235 122.484 35.4752H106.484C106.484 38.579 107.236 42.3508 110.101 45.3282C113.02 48.362 116.803 49.1992 119.92 49.1992V33.1992ZM122.484 35.4752V14.1992H106.484V35.4752H122.484ZM137.254 41.1992V49.1992C141.673 49.1992 145.254 45.6175 145.254 41.1992H137.254ZM127.03 26.4752H135.03C135.03 22.0569 131.449 18.4752 127.03 18.4752V26.4752ZM125.014 26.4752H117.014C117.014 30.8935 120.596 34.4752 125.014 34.4752V26.4752ZM125.014 21.2912V13.2912C120.596 13.2912 117.014 16.8729 117.014 21.2912H125.014ZM127.03 21.2912V29.2912C129.705 29.2912 132.203 27.9544 133.687 25.7288L127.03 21.2912ZM130.558 15.9992V7.99922C127.884 7.99922 125.386 9.33603 123.902 11.5616L130.558 15.9992ZM132.61 15.9992H140.61C140.61 11.5809 137.029 7.99922 132.61 7.99922V15.9992ZM132.61 21.2912H124.61C124.61 25.7095 128.192 29.2912 132.61 29.2912V21.2912ZM137.11 21.2912H145.11C145.11 16.8729 141.529 13.2912 137.11 13.2912V21.2912ZM137.11 26.4752V34.4752C141.529 34.4752 145.11 30.8935 145.11 26.4752H137.11ZM132.61 26.4752V18.4752C128.192 18.4752 124.61 22.0569 124.61 26.4752H132.61ZM132.61 35.9072H124.61C124.61 40.3255 128.192 43.9072 132.61 43.9072V35.9072ZM137.254 35.9072H145.254C145.254 31.4889 141.673 27.9072 137.254 27.9072V35.9072ZM137.254 33.1992H135.202V49.1992H137.254V33.1992ZM135.202 33.1992C134.462 33.1992 134.246 33.0971 134.345 33.1341C134.406 33.1568 134.534 33.2135 134.695 33.3249C134.858 33.4382 135.006 33.5745 135.126 33.7173C135.371 34.0097 135.341 34.1359 135.248 33.7846C135.149 33.4068 135.03 32.6746 135.03 31.4432H119.03C119.03 35.5414 119.741 40.2733 122.868 44.0011C126.266 48.0515 131.009 49.1992 135.202 49.1992V33.1992ZM135.03 31.4432V26.4752H119.03V31.4432H135.03ZM127.03 18.4752H125.014V34.4752H127.03V18.4752ZM133.014 26.4752V21.2912H117.014V26.4752H133.014ZM125.014 29.2912H127.03V13.2912H125.014V29.2912ZM133.687 25.7288L137.215 20.4368L123.902 11.5616L120.374 16.8536L133.687 25.7288ZM130.558 23.9992H132.61V7.99922H130.558V23.9992ZM124.61 15.9992V21.2912H140.61V15.9992H124.61ZM132.61 29.2912H137.11V13.2912H132.61V29.2912ZM129.11 21.2912V26.4752H145.11V21.2912H129.11ZM137.11 18.4752H132.61V34.4752H137.11V18.4752ZM124.61 26.4752V35.9072H140.61V26.4752H124.61ZM132.61 43.9072H137.254V27.9072H132.61V43.9072ZM129.254 35.9072V41.1992H145.254V35.9072H129.254Z" fill="#212833" mask="url(#path-3-outside-2_1_4428)"/>
</svg>
