<svg width="74" height="28" viewBox="0 0 74 28" fill="none" xmlns="http://www.w3.org/2000/svg">
<path fill-rule="evenodd" clip-rule="evenodd" d="M6.41807 2.30085C5.87686 1.19851 4.75576 0.5 3.52774 0.5H1.18241C0.699408 0.5 0.307861 0.891547 0.307861 1.37454C0.307861 1.93455 0.886616 2.3492 1.35225 2.66032C1.38128 2.67972 1.40979 2.70039 1.43771 2.72233L8.38269 8.18162C8.96885 8.64239 9.0705 9.4911 8.60973 10.0773C8.14896 10.6634 7.30026 10.7651 6.71409 10.3043L2.84749 7.26486C1.81768 6.45535 0.307861 7.18896 0.307861 8.49886C0.307861 9.23494 0.819373 9.87215 1.53804 10.0313L6.39954 11.1081C7.12748 11.2694 7.58688 11.9902 7.42564 12.7181C7.26441 13.4461 6.54359 13.9055 5.81564 13.7443L1.95079 12.8882C1.10744 12.7014 0.307861 13.3432 0.307861 14.207C0.307861 15.0776 1.11932 15.7209 1.96694 15.5222L5.87955 14.6051C6.60546 14.435 7.33186 14.8855 7.50201 15.6114C7.67216 16.3373 7.22162 17.0637 6.49571 17.2339L1.54832 18.3935C0.821655 18.5638 0.307861 19.212 0.307861 19.9583C0.307861 21.3088 1.8724 22.0572 2.92379 21.2096L6.92745 17.9823C7.50792 17.5144 8.35781 17.6056 8.82573 18.1861C9.29365 18.7665 9.20241 19.6164 8.62194 20.0843L1.7444 25.6284C1.61681 25.7312 1.4762 25.8071 1.32949 25.8566C0.869516 26.012 0.307861 26.3565 0.307861 26.842C0.307861 27.2054 0.602467 27.5 0.965881 27.5H3.81868C5.17319 27.5 6.40689 26.7208 6.98889 25.4977L9.33287 20.5716C9.65323 19.8984 10.4587 19.6123 11.132 19.9327C11.8052 20.253 12.0913 21.0585 11.7709 21.7318L9.9787 25.4983C9.53659 26.4274 10.2141 27.5 11.243 27.5C12.0185 27.5 12.6463 26.8696 12.6431 26.0941L12.6258 21.8622C12.6228 21.1167 13.2247 20.5098 13.9703 20.5067C14.7159 20.5037 15.3228 21.1056 15.3258 21.8512L15.3431 26.0902C15.3463 26.8697 15.9792 27.5 16.7587 27.5C17.8041 27.5 18.4889 26.4059 18.032 25.4657L16.1531 21.5988C15.8272 20.9282 16.1067 20.1204 16.7773 19.7945C17.4479 19.4687 18.2557 19.7482 18.5816 20.4188L21.1331 25.6699C21.677 26.7894 22.8124 27.5 24.057 27.5H26.4639C26.93 27.5 27.3079 27.1221 27.3079 26.656C27.3079 26.1058 26.732 25.7011 26.2645 25.4109C26.2207 25.3837 26.178 25.3537 26.1366 25.3209L19.2139 19.8333C18.6297 19.3701 18.5315 18.521 18.9946 17.9367C19.4578 17.3524 20.3069 17.2543 20.8912 17.7174L24.7572 20.7821C25.7885 21.5995 27.3079 20.8651 27.3079 19.5491C27.3079 18.8137 26.7984 18.1764 26.0811 18.0145L21.2099 16.9146C20.4827 16.7504 20.0262 16.0277 20.1904 15.3005C20.3546 14.5732 21.0773 14.1167 21.8046 14.2809L25.6611 15.1517C26.5051 15.3422 27.3079 14.7005 27.3079 13.8353C27.3079 12.9677 26.5011 12.3256 25.6557 12.5201L21.7431 13.4203C21.0165 13.5875 20.292 13.134 20.1248 12.4074C19.9576 11.6808 20.4111 10.9562 21.1377 10.7891L26.0657 9.6552C26.7927 9.48793 27.3079 8.84075 27.3079 8.09474C27.3079 6.75237 25.7553 6.00583 24.7068 6.844L20.7087 10.0401C20.1263 10.5056 19.2768 10.4109 18.8112 9.8285C18.3457 9.24613 18.4404 8.39662 19.0228 7.93107L25.9229 2.41521C26.0357 2.32508 26.1584 2.25595 26.2865 2.20729C26.7484 2.03175 27.3079 1.6795 27.3079 1.18533C27.3079 0.806835 27.001 0.5 26.6225 0.5H23.8355C22.5009 0.5 21.2844 1.26486 20.706 2.46761L18.3142 7.44168C17.9911 8.11362 17.1845 8.3964 16.5125 8.0733C15.8406 7.7502 15.5578 6.94355 15.8809 6.27162L17.6908 2.50783C18.1379 1.57786 17.4602 0.5 16.4284 0.5C15.6547 0.5 15.0276 1.12715 15.0276 1.90079V6.13807C15.0276 6.88366 14.4231 7.48807 13.6776 7.48807C12.932 7.48807 12.3276 6.88366 12.3276 6.13807V1.95329C12.3276 1.15066 11.6769 0.5 10.8743 0.5C9.79853 0.5 9.09564 1.62812 9.56973 2.59377L11.4403 6.40391C11.7689 7.07319 11.4928 7.88211 10.8235 8.21069C10.1542 8.53928 9.34528 8.2631 9.01669 7.59382L6.41807 2.30085Z" fill="white"/>
<path d="M33.8459 18.538L31.3259 7.9H34.1159L36.4379 18.142H36.7259L39.0659 7.9H41.8559L39.3179 18.538C38.9399 20.158 37.9679 20.788 36.5639 20.788C35.1959 20.788 34.2419 20.158 33.8459 18.538ZM50.5472 13.192V20.5H47.7572V16.486H47.2172L46.9112 18.25C46.7852 19.276 45.9932 20.572 44.6792 20.572H44.0312C42.4292 20.572 41.5112 19.294 41.5112 17.53C41.5112 15.208 43.0772 14.416 44.8772 14.416H47.7572V13.12H42.5192V10.546H47.9012C49.6652 10.546 50.5472 11.428 50.5472 13.192ZM43.7252 18.286H45.4892L45.8132 16.522H43.7252V18.286ZM51.7819 10.546H54.5719V18.178H57.1459V10.546H59.9359V15.838C59.9359 19.42 58.6219 20.788 55.8679 20.788C53.1319 20.788 51.7819 19.42 51.7819 15.838V10.546ZM61.1711 7H63.9431V17.854H66.1211V20.5H63.8891C62.1071 20.5 61.1711 19.564 61.1711 17.638V7ZM72.5561 20.5H71.5301C68.7041 20.5 67.4441 19.006 67.4441 15.622V13.138H66.4361V10.546H67.4441L69.2081 7.9H70.2341V10.546H72.4841V13.138H70.2341V17.854H72.5561V20.5Z" fill="white" fill-opacity="0.52"/>
</svg>
